<?xml version="1.0" standalone="no"?>
<!DOCTYPE svg PUBLIC "-//W3C//DTD SVG 20010904//EN"
 "http://www.w3.org/TR/2001/REC-SVG-20010904/DTD/svg10.dtd">
<svg version="1.0" xmlns="http://www.w3.org/2000/svg"
 width="1563.000000pt" height="1563.000000pt" viewBox="0 0 1563.000000 1563.000000"
 preserveAspectRatio="xMidYMid meet">

<g transform="translate(0.000000,1563.000000) scale(0.100000,-0.100000)"
fill="#000000" stroke="none">
<path d="M4924 10860 c-28 -11 -61 -54 -69 -90 -17 -76 -175 57 2881 -2418
1568 -1270 2859 -2312 2869 -2315 38 -15 93 -7 124 18 62 53 62 132 -2 192
-50 48 -5669 4598 -5694 4611 -25 14 -78 15 -109 2z"/>
<path d="M10400 10707 c-176 -107 -2069 -1323 -2088 -1341 -14 -13 -26 -40
-29 -63 -4 -34 -1 -45 26 -76 38 -43 77 -53 122 -33 19 8 473 296 1009 640
l975 626 5 -1535 5 -1534 29 -30 c25 -26 37 -31 77 -31 37 0 52 5 73 27 14 14
29 36 31 47 3 12 4 742 3 1623 l-3 1602 -40 41 c-77 79 -113 86 -195 37z"/>
<path d="M4681 9308 c-14 -7 -33 -27 -43 -44 -18 -30 -18 -101 -18 -1620 0
-1464 1 -1590 17 -1613 26 -40 44 -50 93 -50 48 0 66 9 93 49 16 23 17 90 17
877 0 469 2 853 4 853 2 0 189 -63 415 -140 227 -78 425 -143 440 -146 94 -19
159 118 88 184 -14 13 -197 81 -485 179 l-462 157 0 514 c0 485 1 512 18 503
9 -5 313 -142 676 -305 494 -222 668 -296 697 -296 96 0 140 133 61 188 -15
11 -349 164 -741 341 -423 190 -726 332 -742 347 -32 30 -93 41 -128 22z"/>
<path d="M6859 5201 c-73 -23 -104 -67 -96 -138 6 -56 33 -86 120 -129 69 -35
88 -57 69 -76 -13 -13 -51 -15 -118 -4 l-52 8 -11 -33 c-6 -17 -11 -38 -11
-45 0 -18 64 -34 139 -34 118 0 177 48 175 143 -2 55 -30 86 -118 132 -60 32
-76 44 -74 60 3 18 11 20 72 20 73 0 84 7 85 62 1 18 -7 23 -49 32 -58 12 -93
13 -131 2z"/>
<path d="M9357 5194 c-59 -18 -122 -78 -136 -131 -28 -100 -4 -202 62 -260 50
-43 96 -56 184 -51 61 4 81 10 116 34 151 106 116 358 -57 409 -61 18 -107 18
-169 -1z m152 -108 c35 -19 51 -55 51 -117 0 -42 -5 -55 -29 -79 -96 -97 -242
-3 -202 130 16 53 52 80 108 80 24 0 56 -6 72 -14z"/>
<path d="M5922 4982 c-56 -120 -102 -221 -102 -225 0 -4 27 -7 60 -7 55 0 60
2 66 25 6 24 9 25 89 25 80 0 83 -1 89 -25 6 -23 11 -25 66 -25 33 0 60 3 60
8 0 19 -205 442 -215 442 -6 0 -57 -98 -113 -218z m141 -49 l17 -43 -45 0 -44
0 13 33 c7 17 16 41 20 51 8 24 18 14 39 -41z"/>
<path d="M10220 4974 l0 -225 53 3 52 3 5 107 5 107 124 -114 c69 -63 129
-112 133 -109 4 3 8 104 8 225 l0 219 -55 0 -54 0 -3 -105 -3 -104 -122 109
c-67 61 -126 110 -132 110 -8 0 -11 -71 -11 -226z"/>
<path d="M5030 4970 l0 -220 55 0 55 0 0 75 0 75 75 0 75 0 0 45 0 45 -75 0
-75 0 0 50 0 50 90 0 90 0 0 50 0 50 -145 0 -145 0 0 -220z"/>
<path d="M7614 5177 c-2 -7 -3 -105 -2 -217 l3 -205 58 -3 57 -3 0 76 0 75 75
0 74 0 3 -72 3 -73 55 0 55 0 3 218 2 218 -57 -3 -58 -3 -3 -92 -3 -93 -74 0
-75 0 0 95 0 95 -55 0 c-36 0 -57 -5 -61 -13z"/>
<path d="M8554 5177 c-2 -7 -3 -105 -2 -217 l3 -205 58 -3 57 -3 0 221 0 220
-55 0 c-36 0 -57 -5 -61 -13z"/>
<path d="M6985 4328 c-21 -51 -39 -99 -42 -105 -3 -7 -1 -13 5 -13 5 0 13 11
16 25 6 23 11 25 65 25 54 0 59 -2 65 -25 4 -14 11 -25 17 -25 6 0 9 6 6 13
-40 103 -82 197 -88 197 -4 0 -24 -42 -44 -92z m73 0 l21 -48 -49 0 -48 0 21
55 c12 30 25 51 28 47 4 -4 16 -28 27 -54z"/>
<path d="M7293 4315 c23 -58 44 -105 48 -105 4 0 15 19 24 43 45 110 64 167
56 167 -4 0 -23 -40 -42 -90 -18 -49 -36 -87 -40 -82 -3 4 -21 44 -39 90 -18
45 -36 82 -40 82 -4 0 11 -47 33 -105z"/>
<path d="M7590 4315 l0 -105 60 0 c33 0 60 4 60 10 0 6 -25 10 -55 10 l-55 0
0 40 0 40 50 0 c28 0 50 5 50 10 0 6 -22 10 -50 10 l-50 0 0 35 0 35 49 0 c28
0 53 5 56 10 4 6 -17 10 -54 10 l-61 0 0 -105z"/>
<path d="M7880 4315 c0 -128 18 -142 22 -17 l3 87 60 -87 c33 -49 63 -88 68
-88 4 0 6 48 5 108 l-2 107 -3 -87 c-2 -49 -7 -88 -11 -88 -4 0 -33 39 -65 85
-32 47 -62 85 -68 85 -5 0 -9 -46 -9 -105z"/>
<path d="M8221 4334 c4 -76 7 -88 28 -105 30 -25 62 -24 95 2 25 19 26 24 24
107 l-1 87 -6 -81 c-7 -90 -20 -114 -62 -114 -47 0 -59 22 -59 111 0 51 -4 79
-11 79 -7 0 -10 -28 -8 -86z"/>
<path d="M8560 4315 l0 -105 60 0 c33 0 60 4 60 10 0 6 -25 10 -55 10 l-55 0
0 40 0 40 51 0 c31 0 48 4 44 10 -3 6 -26 10 -51 10 -44 0 -44 0 -44 35 l0 35
50 0 c28 0 50 5 50 10 0 6 -25 10 -55 10 l-55 0 0 -105z"/>
</g>
</svg>
